# xmcd
#
# Track frame offsets:
#	150
#	9615
#	21444
#	32496
#	45036
#	55141
#	66265
#	77190
#	89283
#	104354
#	116138
#	128923
#	142888
#	155001
#	169160
#	181963
#	194792
#	207052
#	219820
#	233032
#
# Disc length: 3249 seconds
#
# Revision: 0
# Processed by: cddbd v1.5.2PL0 Copyright (c) Steve Scherf et al.
# Submitted via: EasyCDDAExtractor 2010.6.0.0
#
DISCID=0f0caf14
DTITLE=Hank Snow - Country Music Legends CD 2
DYEAR=1900
DGENRE=Country
TTITLE0=That crazy mambo thing
TTITLE1=The next voice you hear
TTITLE2=Let me go lover
TTITLE3=Yellow roses
TTITLE4=Would you mind
TTITLE5=Cryin' prayin' waitin' hopin'
TTITLE6=I'm glad I got to see you once again
TTITLE7=Born to be happy
TTITLE8=Nobody's child
TTITLE9=The law of love
TTITLE10=I wonder where you are tonight
TTITLE11=I cried but my tears were too late
TTITLE12=My two timin' woman
TTITLE13=The night I stole old Sammy Morgan's gin
TTITLE14=Within this broken heart of mine
TTITLE15=I'm gonna bid my blues goodbye
TTITLE16=A message from the tradewinds
TTITLE17=Why do you punish me (for loving you)
TTITLE18=The only rose
TTITLE19=He'll understand and say well done
EXTD=
EXTT0=
EXTT1=
EXTT2=
EXTT3=
EXTT4=
EXTT5=
EXTT6=
EXTT7=
EXTT8=
EXTT9=
EXTT10=
EXTT11=
EXTT12=
EXTT13=
EXTT14=
EXTT15=
EXTT16=
EXTT17=
EXTT18=
EXTT19=
PLAYORDER=
